<svg width="17" height="17" viewBox="0 0 17 17" fill="none" xmlns="http://www.w3.org/2000/svg">
<path d="M7.375 9.625V12.125C7.375 12.4375 7.48458 12.7031 7.70375 12.9218C7.92275 13.1406 8.18875 13.25 8.50175 13.25C8.81475 13.25 9.08017 13.1406 9.298 12.9218C9.516 12.7031 9.625 12.4375 9.625 12.125V9.625H12.125C12.4375 9.625 12.7031 9.51542 12.9218 9.29625C13.1406 9.07725 13.25 8.81125 13.25 8.49825C13.25 8.18525 13.1406 7.91983 12.9218 7.702C12.7031 7.484 12.4375 7.375 12.125 7.375H9.625V4.875C9.625 4.5625 9.51542 4.29692 9.29625 4.07825C9.07725 3.85942 8.81125 3.75 8.49825 3.75C8.18525 3.75 7.91983 3.85942 7.702 4.07825C7.484 4.29692 7.375 4.5625 7.375 4.875V7.375H4.875C4.5625 7.375 4.29692 7.48458 4.07825 7.70375C3.85942 7.92275 3.75 8.18875 3.75 8.50175C3.75 8.81475 3.85942 9.08017 4.07825 9.298C4.29692 9.516 4.5625 9.625 4.875 9.625H7.375ZM1.80775 17C1.30258 17 0.875 16.825 0.525 16.475C0.175 16.125 0 15.6974 0 15.1923V1.80775C0 1.30258 0.175 0.875 0.525 0.525C0.875 0.175 1.30258 0 1.80775 0H15.1923C15.6974 0 16.125 0.175 16.475 0.525C16.825 0.875 17 1.30258 17 1.80775V15.1923C17 15.6974 16.825 16.125 16.475 16.475C16.125 16.825 15.6974 17 15.1923 17H1.80775Z" fill="white"/>
</svg>
