<svg width="23" height="23" viewBox="0 0 23 23" fill="none" xmlns="http://www.w3.org/2000/svg">
<path d="M13.0144 11.875L10.8078 14.0819C10.6907 14.1987 10.6362 14.3381 10.6444 14.5C10.6523 14.6619 10.7148 14.8013 10.8319 14.9181C10.9487 15.0352 11.0934 15.0938 11.2659 15.0938C11.4384 15.0938 11.5805 15.0352 11.6922 14.9181L14.6537 11.9569C14.8558 11.7548 14.9569 11.5192 14.9569 11.25C14.9569 10.9808 14.8558 10.7452 14.6537 10.5431L11.6681 7.55781C11.5513 7.44073 11.4119 7.38219 11.25 7.38219C11.0881 7.38219 10.9487 7.44073 10.8319 7.55781C10.7148 7.67469 10.6562 7.81937 10.6562 7.99187C10.6562 8.16458 10.7148 8.30667 10.8319 8.41813L13.0144 10.625H7.5C7.32292 10.625 7.17448 10.685 7.05469 10.805C6.9349 10.925 6.875 11.0736 6.875 11.2509C6.875 11.4282 6.9349 11.5766 7.05469 11.6959C7.17448 11.8153 7.32292 11.875 7.5 11.875H13.0144ZM11.2541 22.5C9.69844 22.5 8.23583 22.2048 6.86625 21.6144C5.49687 21.024 4.30562 20.2227 3.2925 19.2106C2.27938 18.1985 1.4774 17.0083 0.886562 15.64C0.295521 14.2719 0 12.8099 0 11.2541C0 9.69844 0.295208 8.23583 0.885625 6.86625C1.47604 5.49687 2.27729 4.30562 3.28937 3.2925C4.30146 2.27937 5.49167 1.4774 6.86 0.886562C8.22812 0.295521 9.6901 0 11.2459 0C12.8016 0 14.2642 0.295209 15.6338 0.885626C17.0031 1.47604 18.1944 2.27729 19.2075 3.28938C20.2206 4.30146 21.0226 5.49167 21.6134 6.86C22.2045 8.22813 22.5 9.6901 22.5 11.2459C22.5 12.8016 22.2048 14.2642 21.6144 15.6337C21.024 17.0031 20.2227 18.1944 19.2106 19.2075C18.1985 20.2206 17.0083 21.0226 15.64 21.6134C14.2719 22.2045 12.8099 22.5 11.2541 22.5ZM11.25 21.25C14.0417 21.25 16.4062 20.2812 18.3438 18.3438C20.2812 16.4062 21.25 14.0417 21.25 11.25C21.25 8.45833 20.2812 6.09375 18.3438 4.15625C16.4062 2.21875 14.0417 1.25 11.25 1.25C8.45833 1.25 6.09375 2.21875 4.15625 4.15625C2.21875 6.09375 1.25 8.45833 1.25 11.25C1.25 14.0417 2.21875 16.4062 4.15625 18.3438C6.09375 20.2812 8.45833 21.25 11.25 21.25Z" fill="#777777"/>
</svg>
