<svg width="23" height="23" viewBox="0 0 23 23" fill="none" xmlns="http://www.w3.org/2000/svg">
<path d="M9.48562 11.875L11.6922 14.0819C11.8093 14.1987 11.8638 14.3381 11.8556 14.5C11.8477 14.6619 11.7852 14.8013 11.6681 14.9181C11.5513 15.0352 11.4066 15.0938 11.2341 15.0938C11.0616 15.0938 10.9195 15.0352 10.8078 14.9181L7.84625 11.9569C7.64417 11.7548 7.54313 11.5192 7.54313 11.25C7.54313 10.9808 7.64417 10.7452 7.84625 10.5431L10.8319 7.55781C10.9487 7.44073 11.0881 7.38219 11.25 7.38219C11.4119 7.38219 11.5513 7.44073 11.6681 7.55781C11.7852 7.67469 11.8438 7.81937 11.8438 7.99187C11.8438 8.16458 11.7852 8.30667 11.6681 8.41813L9.48562 10.625H15C15.1771 10.625 15.3255 10.685 15.4453 10.805C15.5651 10.925 15.625 11.0736 15.625 11.2509C15.625 11.4282 15.5651 11.5766 15.4453 11.6959C15.3255 11.8153 15.1771 11.875 15 11.875H9.48562ZM11.2459 22.5C12.8016 22.5 14.2642 22.2048 15.6337 21.6144C17.0031 21.024 18.1944 20.2227 19.2075 19.2106C20.2206 18.1985 21.0226 17.0083 21.6134 15.64C22.2045 14.2719 22.5 12.8099 22.5 11.2541C22.5 9.69844 22.2048 8.23583 21.6144 6.86625C21.024 5.49687 20.2227 4.30562 19.2106 3.2925C18.1985 2.27937 17.0083 1.4774 15.64 0.886562C14.2719 0.295521 12.8099 0 11.2541 0C9.69844 0 8.23583 0.295209 6.86625 0.885626C5.49687 1.47604 4.30562 2.27729 3.2925 3.28938C2.27938 4.30146 1.4774 5.49167 0.886562 6.86C0.295521 8.22813 0 9.6901 0 11.2459C0 12.8016 0.29521 14.2642 0.885626 15.6337C1.47604 17.0031 2.27729 18.1944 3.28938 19.2075C4.30146 20.2206 5.49167 21.0226 6.86 21.6134C8.22813 22.2045 9.6901 22.5 11.2459 22.5ZM11.25 21.25C8.45833 21.25 6.09375 20.2812 4.15625 18.3438C2.21875 16.4062 1.25 14.0417 1.25 11.25C1.25 8.45833 2.21875 6.09375 4.15625 4.15625C6.09375 2.21875 8.45833 1.25 11.25 1.25C14.0417 1.25 16.4062 2.21875 18.3438 4.15625C20.2812 6.09375 21.25 8.45833 21.25 11.25C21.25 14.0417 20.2812 16.4062 18.3438 18.3438C16.4062 20.2812 14.0417 21.25 11.25 21.25Z" fill="#777777"/>
</svg>
