<svg width="11" height="7" viewBox="0 0 11 7" fill="none" xmlns="http://www.w3.org/2000/svg">
<path d="M5.33959 1.73074L9.41259 5.80399C9.55109 5.94232 9.72517 6.01316 9.93484 6.01649C10.1443 6.01966 10.3216 5.94882 10.4666 5.80399C10.6114 5.65899 10.6838 5.48332 10.6838 5.27699C10.6838 5.07066 10.6114 4.89499 10.4666 4.74999L5.97234 0.255741C5.87867 0.162241 5.77992 0.09624 5.67609 0.0577397C5.57225 0.0192399 5.46009 -1.00136e-05 5.33959 -1.00136e-05C5.21909 -1.00136e-05 5.10692 0.0192399 5.00309 0.0577397C4.89925 0.09624 4.8005 0.162241 4.70684 0.255741L0.212586 4.74999C0.0742531 4.88849 0.00341988 5.06257 8.67844e-05 5.27224C-0.00307941 5.48174 0.0677538 5.65899 0.212586 5.80399C0.357587 5.94882 0.533253 6.02124 0.739587 6.02124C0.94592 6.02124 1.12159 5.94882 1.26659 5.80399L5.33959 1.73074Z" fill="#191919"/>
</svg>
