<svg width="9" height="7" viewBox="0 0 9 7" fill="none" xmlns="http://www.w3.org/2000/svg">
<path d="M3.16099 4.1801L1.66099 2.6801C1.57228 2.59012 1.46634 2.51895 1.34951 2.47084C1.23267 2.42273 1.10733 2.39867 0.980988 2.4001C0.851078 2.39404 0.721377 2.4159 0.600627 2.4642C0.479877 2.5125 0.370883 2.58612 0.280988 2.6801C0.187007 2.76999 0.113386 2.87899 0.0650863 2.99974C0.0167863 3.12049 -0.00507072 3.25019 0.000988157 3.3801C-0.00317966 3.50978 0.0195462 3.63893 0.067735 3.7594C0.115924 3.87987 0.188532 3.98906 0.280988 4.0801L2.48099 6.2801C2.66562 6.46851 2.91722 6.57634 3.18099 6.5801C3.44476 6.57634 3.69636 6.46851 3.88099 6.2801L8.48099 1.6801C8.64639 1.49265 8.73558 1.25004 8.73099 1.0001C8.73983 0.866488 8.72002 0.732533 8.67289 0.6072C8.62576 0.481867 8.5524 0.368049 8.45772 0.273367C8.36304 0.178684 8.24922 0.105323 8.12389 0.0581946C7.99855 0.0110662 7.8646 -0.00874172 7.73099 9.71952e-05C7.60108 -0.00596168 7.47138 0.0158953 7.35063 0.0641953C7.22988 0.112495 7.12088 0.186116 7.03099 0.280097L3.16099 4.1801Z" fill="white"/>
</svg>
