<svg width="200" height="51" viewBox="0 0 200 51" fill="none" xmlns="http://www.w3.org/2000/svg">
<g clip-path="url(#clip0_78_5)">
<path fill-rule="evenodd" clip-rule="evenodd" d="M51.0826 7.53807C45.6295 3.04729 38.1716 1.52364 31.1147 2.72652C24.2181 3.60864 17.8027 7.61826 14.6752 13.6327C11.6279 19.4867 11.8685 26.6239 14.7554 31.9968C17.081 36.4074 21.0906 39.6953 25.3408 41.2991C21.251 36.8885 19.166 31.0345 19.0858 25.5012C19.0056 19.7273 21.3312 13.4723 26.1428 9.3825C28.6287 7.2173 31.9166 5.61345 35.4451 4.97191C39.1339 4.33037 43.1436 4.73134 46.8324 6.1748C50.842 7.77865 54.3705 10.9062 56.7763 14.6752C55.3328 12.109 53.328 9.46269 51.0826 7.53807Z" fill="url(#paint0_radial_78_5)"/>
<path fill-rule="evenodd" clip-rule="evenodd" d="M59.583 25.2606H59.6632C59.8236 19.3264 57.6584 13.3119 53.7289 8.74096C49.7995 4.16999 44.1058 1.20287 38.1716 0.561333C32.2374 -0.0802066 26.1427 1.52364 21.4916 4.97192C16.8404 8.34 13.6327 13.5525 12.51 19.0056C11.4675 24.3785 12.51 30.1524 15.3167 34.6431C18.0433 39.0537 22.4539 42.4218 27.3456 43.7851C32.077 45.1483 37.2895 44.7474 41.6199 42.6624C45.8701 40.6576 49.2382 37.1291 51.0826 33.0393C54.2101 31.1147 57.498 28.4683 58.9415 24.7795C59.4226 34.5629 53.0072 44.587 43.7049 48.1957C34.4827 51.8043 22.935 48.6768 16.8404 40.9783C11.7883 35.1243 9.86366 26.6239 11.8685 19.0858C13.8733 11.6279 19.7273 5.1323 26.9447 2.48595C34.2422 -0.160399 42.903 0.962296 49.2382 5.37288C55.5734 9.86366 59.583 17.5621 59.583 25.2606Z" fill="url(#paint1_radial_78_5)"/>
<path d="M36.4876 18.1235L32.7987 19.8877L32.1572 17.0008L37.0489 14.6752H39.6953V34.0818H36.5678V18.1235H36.4876Z" fill="#002F46"/>
<path d="M71.6119 23.0152H64.4747V24.7795H71.6119V23.0152Z" fill="#006296"/>
<path d="M71.6119 32.3977H64.4747V34.162H71.6119V32.3977Z" fill="#006296"/>
<path d="M71.6119 27.506H64.4747V29.2702H71.6119V27.506Z" fill="#006296"/>
<path d="M4.49077 24.7795H0.882111V23.0152H10.1844V24.7795H6.57578V34.162H4.49077V24.7795Z" fill="#006296"/>
<path d="M13.6327 23.0152V27.4258H19.0056V23.0152H21.1708V34.162H19.0056V29.2702H13.6327V34.162H11.4675V23.0152H13.6327Z" fill="#006296"/>
<path d="M30.4731 29.2702H25.7418V32.4779H31.0345V34.162H23.6568V23.0152H30.7939V24.6993H25.822V27.506H30.4731V29.2702Z" fill="#006296"/>
<path d="M51.8845 29.2702H47.1532V32.4779H52.4459V34.162H45.0682V23.0152H52.2053V24.6993H47.2334V27.506H51.9647V29.2702H51.8845Z" fill="#006296"/>
<path d="M57.2574 34.162V29.5108L53.4082 23.0954H55.8941L57.3376 25.9824C57.7386 26.8645 58.0593 27.3456 58.3801 28.1476C58.7009 27.506 59.0216 26.8645 59.4226 26.0626L60.9463 23.1756H63.4322L59.3424 29.591V34.3224H57.2574V34.162Z" fill="#006296"/>
<path d="M93.4242 36.648H86.3672V19.8878H95.1082V21.8124H88.5324V34.7234H93.5044C94.8677 34.7234 96.1507 34.6432 97.0328 34.3224V36.0867C96.1507 36.4876 94.8677 36.648 93.4242 36.648ZM93.5044 28.7892V26.8645H98.7971V19.567H100.962V37.8509H98.7971V28.7892H93.5044Z" fill="#191A1E"/>
<path d="M110.746 29.1901V32.3176H108.581V29.1901H104.731V27.3457H113.071C114.515 27.3457 115.798 27.2655 116.84 26.9447V28.709C115.878 29.0297 114.595 29.1099 113.152 29.1099H110.746V29.1901ZM105.453 22.9351C105.453 21.8926 105.934 21.0907 106.576 20.6095C107.538 19.8878 108.982 19.567 110.505 19.567C112.029 19.567 113.472 19.8878 114.354 20.6095C115.076 21.1709 115.477 21.9728 115.477 22.9351C115.477 23.9776 115.076 24.7795 114.354 25.3409C113.392 26.0626 112.029 26.3834 110.505 26.3834C108.982 26.3834 107.538 26.0626 106.576 25.3409C105.854 24.6993 105.453 23.8974 105.453 22.9351ZM120.529 38.0915H106.576V32.879H108.741V36.1669H120.529V38.0915ZM107.538 22.9351C107.538 23.4163 107.779 23.8172 108.099 24.0578C108.661 24.4588 109.463 24.6993 110.505 24.6993C111.467 24.6993 112.35 24.4588 112.831 24.0578C113.152 23.8172 113.392 23.4163 113.392 22.9351C113.392 22.4539 113.152 22.053 112.831 21.8124C112.35 21.4114 111.467 21.2511 110.505 21.2511C109.463 21.2511 108.661 21.4916 108.099 21.8124C107.779 22.053 107.538 22.4539 107.538 22.9351ZM120.208 33.5205H118.043V32.077H114.034V30.3128H118.043V19.567H120.208V33.5205Z" fill="#191A1E"/>
<path d="M129.19 32.077C128.388 34.162 126.223 35.8461 123.897 36.648V34.6432C126.063 33.6007 128.067 31.7563 128.067 26.7041V19.8878H130.233V26.7041C130.233 31.8365 132.237 33.6007 134.403 34.6432V36.648C132.157 35.8461 129.992 34.162 129.19 32.077ZM139.294 19.567V37.8509H137.129V28.0674H132.879V26.1428H137.129V19.567H139.294Z" fill="#191A1E"/>
<path d="M143.063 28.4684V26.6239H159.583V28.4684H152.366V30.0722H158.38V34.9639H146.512V36.3272H158.781V38.0915H144.346V33.1997H156.215V31.8364H144.346V30.0722H150.281V28.4684H143.063ZM143.945 22.5341C143.945 21.7322 144.266 21.1708 144.828 20.7699C145.95 19.968 148.115 19.6472 151.323 19.6472C154.531 19.6472 156.696 19.968 157.819 20.7699C158.38 21.251 158.701 21.8124 158.701 22.5341C158.701 23.2558 158.38 23.8974 157.819 24.2983C156.696 25.1003 154.531 25.421 151.323 25.421C148.115 25.421 145.95 25.1003 144.828 24.2983C144.266 23.8172 143.945 23.2558 143.945 22.5341ZM146.111 22.5341C146.111 22.7747 146.271 22.9351 146.512 23.1757C147.153 23.5766 148.757 23.737 151.323 23.737C153.889 23.737 155.493 23.5766 156.135 23.1757C156.375 23.0153 156.536 22.7747 156.536 22.5341C156.536 22.2935 156.375 22.053 156.135 21.8926C155.493 21.4916 153.889 21.3312 151.323 21.3312C148.757 21.3312 147.153 21.4916 146.512 21.8926C146.271 22.053 146.111 22.2133 146.111 22.5341Z" fill="#191A1E"/>
<path d="M162.39 24.7795C162.39 22.9351 162.951 21.4916 163.913 20.6095C164.715 19.8878 165.838 19.4868 167.121 19.4868C168.484 19.4868 169.607 19.8878 170.409 20.6095C171.371 21.4916 171.933 22.9351 171.933 24.7795C171.933 26.6239 171.371 28.0674 170.409 28.9495C169.607 29.6713 168.484 30.0722 167.121 30.0722C165.758 30.0722 164.715 29.6713 163.913 28.9495C162.951 28.0674 162.39 26.6239 162.39 24.7795ZM165.838 31.7563V36.0867H177.466V38.0113H163.673V31.8365H165.838V31.7563ZM164.555 24.7795C164.555 25.9824 164.876 26.9447 165.437 27.5061C165.918 27.9872 166.48 28.2278 167.201 28.2278C168.003 28.2278 168.565 27.9872 169.046 27.5061C169.607 26.9447 169.928 25.9824 169.928 24.7795C169.928 23.5766 169.607 22.6143 169.046 22.053C168.565 21.5718 168.003 21.3312 167.201 21.3312C166.48 21.3312 165.838 21.5718 165.437 22.053C164.795 22.6143 164.555 23.5766 164.555 24.7795ZM177.145 19.567V24.5389H179.791V26.4636H177.145V32.3176H174.98V19.4868H177.145V19.567Z" fill="#191A1E"/>
<path d="M184.202 34.964V26.624H186.367V34.964H190.457C192.061 34.964 193.344 34.6432 194.066 34.0017V19.567H196.231V27.0249H199.118V28.9495H196.231V37.8509H194.066V35.7659C193.344 36.4876 191.82 36.8084 189.976 36.8084H181.556V34.8838H184.202V34.964ZM189.174 27.2655V21.8926H182.117V19.968H191.339V26.9447C191.339 28.6288 191.179 30.5534 190.858 31.8365H188.693C189.014 30.5534 189.174 28.7891 189.174 27.2655Z" fill="#191A1E"/>
<path d="M86.8353 10.261V9.77186H90.2507V10.261H88.8187V14.3257H88.2673V10.261H86.8353ZM91.1017 14.3257V9.77186H91.6532V11.7997H94.0813V9.77186H94.6327V14.3257H94.0813V12.2889H91.6532V14.3257H91.1017ZM95.7367 14.3257V9.77186H98.485V10.261H96.2882V11.7997H98.3427V12.2889H96.2882V13.8365H98.5206V14.3257H95.7367ZM105.082 12.0488C105.082 12.5291 104.996 12.9441 104.822 13.294C104.649 13.6438 104.411 13.9136 104.108 14.1033C103.806 14.2931 103.461 14.3879 103.072 14.3879C102.684 14.3879 102.338 14.2931 102.036 14.1033C101.734 13.9136 101.496 13.6438 101.322 13.294C101.149 12.9441 101.062 12.5291 101.062 12.0488C101.062 11.5685 101.149 11.1534 101.322 10.8036C101.496 10.4537 101.734 10.184 102.036 9.99421C102.338 9.80447 102.684 9.7096 103.072 9.7096C103.461 9.7096 103.806 9.80447 104.108 9.99421C104.411 10.184 104.649 10.4537 104.822 10.8036C104.996 11.1534 105.082 11.5685 105.082 12.0488ZM104.549 12.0488C104.549 11.6545 104.483 11.3217 104.351 11.0504C104.22 10.7791 104.043 10.5738 103.819 10.4345C103.597 10.2951 103.348 10.2255 103.072 10.2255C102.796 10.2255 102.547 10.2951 102.323 10.4345C102.101 10.5738 101.923 10.7791 101.791 11.0504C101.661 11.3217 101.596 11.6545 101.596 12.0488C101.596 12.4431 101.661 12.7759 101.791 13.0471C101.923 13.3184 102.101 13.5237 102.323 13.6631C102.547 13.8024 102.796 13.8721 103.072 13.8721C103.348 13.8721 103.597 13.8024 103.819 13.6631C104.043 13.5237 104.22 13.3184 104.351 13.0471C104.483 12.7759 104.549 12.4431 104.549 12.0488ZM109.621 9.77186V14.3257H109.087L106.605 10.7502H106.561V14.3257H106.009V9.77186H106.543L109.034 13.3562H109.078V9.77186H109.621ZM110.724 14.3257V9.77186H113.472V10.261H111.275V11.7997H113.33V12.2889H111.275V13.8365H113.508V14.3257H110.724ZM118.718 10.9103C118.691 10.685 118.583 10.5101 118.393 10.3856C118.203 10.261 117.971 10.1988 117.695 10.1988C117.493 10.1988 117.317 10.2314 117.166 10.2966C117.016 10.3618 116.899 10.4515 116.814 10.5657C116.731 10.6798 116.69 10.8095 116.69 10.9548C116.69 11.0763 116.719 11.1808 116.776 11.2683C116.836 11.3543 116.911 11.4262 117.003 11.484C117.095 11.5403 117.192 11.587 117.292 11.6241C117.393 11.6597 117.486 11.6886 117.57 11.7108L118.033 11.8353C118.151 11.8664 118.283 11.9094 118.429 11.9643C118.575 12.0191 118.715 12.094 118.849 12.1889C118.984 12.2822 119.095 12.4023 119.182 12.5491C119.27 12.6958 119.314 12.8759 119.314 13.0894C119.314 13.3355 119.249 13.5578 119.12 13.7565C118.993 13.9551 118.806 14.113 118.56 14.2301C118.315 14.3472 118.018 14.4057 117.668 14.4057C117.342 14.4057 117.06 14.3531 116.821 14.2479C116.584 14.1426 116.397 13.9959 116.261 13.8076C116.126 13.6193 116.049 13.4007 116.032 13.1517H116.601C116.616 13.3236 116.673 13.4659 116.774 13.5786C116.877 13.6897 117.005 13.7728 117.161 13.8276C117.318 13.881 117.487 13.9077 117.668 13.9077C117.879 13.9077 118.068 13.8736 118.235 13.8054C118.403 13.7357 118.535 13.6393 118.633 13.5163C118.731 13.3918 118.78 13.2465 118.78 13.0805C118.78 12.9293 118.738 12.8063 118.653 12.7114C118.569 12.6165 118.457 12.5394 118.32 12.4801C118.182 12.4208 118.033 12.369 117.873 12.3245L117.312 12.1644C116.957 12.0621 116.675 11.9161 116.467 11.7264C116.26 11.5366 116.156 11.2883 116.156 10.9815C116.156 10.7265 116.225 10.5041 116.363 10.3144C116.502 10.1232 116.689 9.97494 116.923 9.8697C117.159 9.76297 117.422 9.7096 117.713 9.7096C118.006 9.7096 118.267 9.76222 118.495 9.86747C118.724 9.97124 118.904 10.1135 119.038 10.2944C119.173 10.4752 119.244 10.6805 119.251 10.9103H118.718ZM120.22 14.3257V9.77186H122.968V10.261H120.772V11.7997H122.826V12.2889H120.772V13.8365H123.004V14.3257H120.22ZM127.805 12.0488C127.805 12.5291 127.718 12.9441 127.545 13.294C127.371 13.6438 127.133 13.9136 126.831 14.1033C126.528 14.2931 126.183 14.3879 125.795 14.3879C125.406 14.3879 125.061 14.2931 124.758 14.1033C124.456 13.9136 124.218 13.6438 124.045 13.294C123.871 12.9441 123.785 12.5291 123.785 12.0488C123.785 11.5685 123.871 11.1534 124.045 10.8036C124.218 10.4537 124.456 10.184 124.758 9.99421C125.061 9.80447 125.406 9.7096 125.795 9.7096C126.183 9.7096 126.528 9.80447 126.831 9.99421C127.133 10.184 127.371 10.4537 127.545 10.8036C127.718 11.1534 127.805 11.5685 127.805 12.0488ZM127.271 12.0488C127.271 11.6545 127.205 11.3217 127.073 11.0504C126.943 10.7791 126.766 10.5738 126.542 10.4345C126.319 10.2951 126.07 10.2255 125.795 10.2255C125.519 10.2255 125.269 10.2951 125.045 10.4345C124.823 10.5738 124.646 10.7791 124.514 11.0504C124.383 11.3217 124.318 11.6545 124.318 12.0488C124.318 12.4431 124.383 12.7759 124.514 13.0471C124.646 13.3184 124.823 13.5237 125.045 13.6631C125.269 13.8024 125.519 13.8721 125.795 13.8721C126.07 13.8721 126.319 13.8024 126.542 13.6631C126.766 13.5237 126.943 13.3184 127.073 13.0471C127.205 12.7759 127.271 12.4431 127.271 12.0488ZM131.72 9.77186H132.272V12.787C132.272 13.0983 132.198 13.3762 132.052 13.6208C131.906 13.8639 131.701 14.0559 131.436 14.1967C131.17 14.3361 130.859 14.4057 130.502 14.4057C130.145 14.4057 129.833 14.3361 129.568 14.1967C129.303 14.0559 129.097 13.8639 128.95 13.6208C128.805 13.3762 128.732 13.0983 128.732 12.787V9.77186H129.283V12.7425C129.283 12.9649 129.332 13.1628 129.43 13.3362C129.528 13.5082 129.667 13.6438 129.848 13.7431C130.03 13.841 130.248 13.8899 130.502 13.8899C130.755 13.8899 130.973 13.841 131.156 13.7431C131.338 13.6438 131.477 13.5082 131.574 13.3362C131.671 13.1628 131.72 12.9649 131.72 12.7425V9.77186ZM133.373 14.3257V9.77186H133.924V13.8365H136.041V14.3257H133.373ZM138.656 14.3257V9.77186H141.404V10.261H139.208V11.7997H141.262V12.2889H139.208V13.8365H141.44V14.3257H138.656ZM142.007 9.77186H142.639L143.902 11.8976H143.955L145.218 9.77186H145.849L144.204 12.449V14.3257H143.652V12.449L142.007 9.77186ZM146.563 14.3257V9.77186H149.311V10.261H147.114V11.7997H149.169V12.2889H147.114V13.8365H149.346V14.3257H146.563ZM155.73 11.1949H155.179C155.146 11.0363 155.089 10.897 155.008 10.7769C154.928 10.6568 154.83 10.556 154.714 10.4745C154.6 10.3915 154.473 10.3292 154.334 10.2877C154.194 10.2462 154.049 10.2255 153.898 10.2255C153.622 10.2255 153.373 10.2951 153.149 10.4345C152.926 10.5738 152.749 10.7791 152.617 11.0504C152.487 11.3217 152.422 11.6545 152.422 12.0488C152.422 12.4431 152.487 12.7759 152.617 13.0471C152.749 13.3184 152.926 13.5237 153.149 13.6631C153.373 13.8024 153.622 13.8721 153.898 13.8721C154.049 13.8721 154.194 13.8513 154.334 13.8098C154.473 13.7683 154.6 13.7068 154.714 13.6253C154.83 13.5423 154.928 13.4407 155.008 13.3206C155.089 13.1991 155.146 13.0597 155.179 12.9026H155.73C155.689 13.1353 155.613 13.3436 155.503 13.5274C155.394 13.7112 155.257 13.8676 155.094 13.9966C154.931 14.1241 154.748 14.2212 154.545 14.2879C154.343 14.3546 154.128 14.3879 153.898 14.3879C153.51 14.3879 153.164 14.2931 152.862 14.1033C152.559 13.9136 152.322 13.6438 152.148 13.294C151.975 12.9441 151.888 12.5291 151.888 12.0488C151.888 11.5685 151.975 11.1534 152.148 10.8036C152.322 10.4537 152.559 10.184 152.862 9.99421C153.164 9.80447 153.51 9.7096 153.898 9.7096C154.128 9.7096 154.343 9.74295 154.545 9.80966C154.748 9.87637 154.931 9.9742 155.094 10.1032C155.257 10.2307 155.394 10.3863 155.503 10.5701C155.613 10.7524 155.689 10.9607 155.73 11.1949ZM156.621 14.3257V9.77186H157.173V13.8365H159.29V14.3257H156.621ZM160.695 9.77186V14.3257H160.143V9.77186H160.695ZM165.412 9.77186V14.3257H164.878L162.396 10.7502H162.352V14.3257H161.801V9.77186H162.334L164.825 13.3562H164.869V9.77186H165.412ZM167.066 9.77186V14.3257H166.515V9.77186H167.066ZM171.836 11.1949H171.285C171.252 11.0363 171.195 10.897 171.114 10.7769C171.034 10.6568 170.936 10.556 170.82 10.4745C170.706 10.3915 170.579 10.3292 170.44 10.2877C170.301 10.2462 170.155 10.2255 170.004 10.2255C169.729 10.2255 169.479 10.2951 169.255 10.4345C169.033 10.5738 168.855 10.7791 168.724 11.0504C168.593 11.3217 168.528 11.6545 168.528 12.0488C168.528 12.4431 168.593 12.7759 168.724 13.0471C168.855 13.3184 169.033 13.5237 169.255 13.6631C169.479 13.8024 169.729 13.8721 170.004 13.8721C170.155 13.8721 170.301 13.8513 170.44 13.8098C170.579 13.7683 170.706 13.7068 170.82 13.6253C170.936 13.5423 171.034 13.4407 171.114 13.3206C171.195 13.1991 171.252 13.0597 171.285 12.9026H171.836C171.795 13.1353 171.719 13.3436 171.61 13.5274C171.5 13.7112 171.364 13.8676 171.201 13.9966C171.037 14.1241 170.854 14.2212 170.651 14.2879C170.45 14.3546 170.234 14.3879 170.004 14.3879C169.616 14.3879 169.271 14.2931 168.968 14.1033C168.666 13.9136 168.428 13.6438 168.254 13.294C168.081 12.9441 167.994 12.5291 167.994 12.0488C167.994 11.5685 168.081 11.1534 168.254 10.8036C168.428 10.4537 168.666 10.184 168.968 9.99421C169.271 9.80447 169.616 9.7096 170.004 9.7096C170.234 9.7096 170.45 9.74295 170.651 9.80966C170.854 9.87637 171.037 9.9742 171.201 10.1032C171.364 10.2307 171.5 10.3863 171.61 10.5701C171.719 10.7524 171.795 10.9607 171.836 11.1949Z" fill="#006296"/>
</g>
<defs>
<radialGradient id="paint0_radial_78_5" cx="0" cy="0" r="1" gradientUnits="userSpaceOnUse" gradientTransform="translate(53.4067 45.1628) scale(73.6912 73.6912)">
<stop offset="0.2688" stop-color="white" stop-opacity="0"/>
<stop offset="0.3148" stop-color="#DFF1FC" stop-opacity="0.1782"/>
<stop offset="0.3861" stop-color="#A9DCF7" stop-opacity="0.4546"/>
<stop offset="0.4478" stop-color="#77CBF3" stop-opacity="0.6936"/>
<stop offset="0.4968" stop-color="#4EC1F0" stop-opacity="0.8833"/>
<stop offset="0.5269" stop-color="#39BDEF"/>
<stop offset="0.564" stop-color="#26A9DE"/>
<stop offset="0.6383" stop-color="#0086BF"/>
<stop offset="0.7026" stop-color="#006DA9"/>
<stop offset="0.7536" stop-color="#005F9C"/>
<stop offset="0.7849" stop-color="#005998"/>
<stop offset="1" stop-color="#006296"/>
</radialGradient>
<radialGradient id="paint1_radial_78_5" cx="0" cy="0" r="1" gradientUnits="userSpaceOnUse" gradientTransform="translate(51.3563 28.2621) scale(61.6839)">
<stop offset="0.2688" stop-color="white" stop-opacity="0"/>
<stop offset="0.3148" stop-color="#DFF1FC" stop-opacity="0.1782"/>
<stop offset="0.3861" stop-color="#A9DCF7" stop-opacity="0.4546"/>
<stop offset="0.4478" stop-color="#77CBF3" stop-opacity="0.6936"/>
<stop offset="0.4968" stop-color="#4EC1F0" stop-opacity="0.8833"/>
<stop offset="0.5269" stop-color="#39BDEF"/>
<stop offset="0.564" stop-color="#26A9DE"/>
<stop offset="0.6383" stop-color="#0086BF"/>
<stop offset="0.7026" stop-color="#006DA9"/>
<stop offset="0.7536" stop-color="#005F9C"/>
<stop offset="0.7849" stop-color="#005998"/>
<stop offset="1" stop-color="#006296"/>
</radialGradient>
<clipPath id="clip0_78_5">
<rect width="200" height="50.0401" fill="white"/>
</clipPath>
</defs>
</svg>
