<svg width="24" height="24" viewBox="0 0 24 24" fill="none" xmlns="http://www.w3.org/2000/svg">
<path d="M10.875 13.125V15.625C10.875 15.9375 10.9846 16.2031 11.2038 16.4218C11.4227 16.6406 11.6888 16.75 12.0017 16.75C12.3148 16.75 12.5802 16.6406 12.798 16.4218C13.016 16.2031 13.125 15.9375 13.125 15.625V13.125H15.625C15.9375 13.125 16.2031 13.0154 16.4218 12.7963C16.6406 12.5773 16.75 12.3112 16.75 11.9983C16.75 11.6853 16.6406 11.4198 16.4218 11.202C16.2031 10.984 15.9375 10.875 15.625 10.875H13.125V8.375C13.125 8.0625 13.0154 7.79692 12.7963 7.57825C12.5773 7.35942 12.3112 7.25 11.9983 7.25C11.6853 7.25 11.4198 7.35942 11.202 7.57825C10.984 7.79692 10.875 8.0625 10.875 8.375V10.875H8.375C8.0625 10.875 7.79692 10.9846 7.57825 11.2038C7.35942 11.4227 7.25 11.6888 7.25 12.0017C7.25 12.3148 7.35942 12.5802 7.57825 12.798C7.79692 13.016 8.0625 13.125 8.375 13.125H10.875ZM5.30775 20.5C4.80258 20.5 4.375 20.325 4.025 19.975C3.675 19.625 3.5 19.1974 3.5 18.6923V5.30775C3.5 4.80258 3.675 4.375 4.025 4.025C4.375 3.675 4.80258 3.5 5.30775 3.5H18.6923C19.1974 3.5 19.625 3.675 19.975 4.025C20.325 4.375 20.5 4.80258 20.5 5.30775V18.6923C20.5 19.1974 20.325 19.625 19.975 19.975C19.625 20.325 19.1974 20.5 18.6923 20.5H5.30775Z" fill="white"/>
</svg>
