<svg width="31" height="31" viewBox="0 0 31 31" fill="none" xmlns="http://www.w3.org/2000/svg">
<rect width="31" height="31" rx="15.5" fill="url(#paint0_linear_19_783)"/>
<g clip-path="url(#clip0_19_783)">
<path d="M19.638 7.5H11.362C9.2295 7.5 7.5 9.2295 7.5 11.362V19.638C7.5 21.7705 9.2295 23.5 11.362 23.5H19.638C21.7705 23.5 23.5 21.7705 23.5 19.638V11.362C23.5 9.2295 21.7705 7.5 19.638 7.5ZM22.1205 19.3616C22.1205 20.8846 20.8846 22.1205 19.3616 22.1205H11.6376C10.1146 22.1205 8.87869 20.8846 8.87869 19.3616V11.6376C8.87869 10.1146 10.1146 8.87869 11.6376 8.87869H19.3616C20.8846 8.87869 22.1205 10.1146 22.1205 11.6376V19.3616Z" fill="white"/>
<path d="M15.5082 11.3621C13.2245 11.3621 11.3706 13.2159 11.3706 15.4997C11.3706 17.7834 13.2245 19.6373 15.5082 19.6373C17.7919 19.6373 19.6458 17.7834 19.6458 15.4997C19.6458 13.2159 17.7919 11.3621 15.5082 11.3621ZM15.5082 18.2586C13.9883 18.2586 12.7493 17.0196 12.7493 15.4997C12.7493 13.9797 13.9883 12.7407 15.5082 12.7407C17.0281 12.7407 18.2671 13.9797 18.2671 15.4997C18.2671 17.0196 17.0281 18.2586 15.5082 18.2586Z" fill="white"/>
<path d="M19.9213 11.914C19.4653 11.914 19.0938 11.5425 19.0938 11.0865C19.0938 10.6305 19.4653 10.259 19.9213 10.259C20.3773 10.259 20.7488 10.6305 20.7488 11.0865C20.7488 11.5425 20.3773 11.914 19.9213 11.914Z" fill="white"/>
</g>
<defs>
<linearGradient id="paint0_linear_19_783" x1="26.5" y1="3.26746" x2="7.5" y2="27.7675" gradientUnits="userSpaceOnUse">
<stop stop-color="#6749D1"/>
<stop offset="0.5" stop-color="#E2239C"/>
<stop offset="0.75" stop-color="#F7248A"/>
<stop offset="1" stop-color="#FDD365"/>
</linearGradient>
<clipPath id="clip0_19_783">
<rect width="16" height="16" fill="white" transform="translate(7.5 7.5)"/>
</clipPath>
</defs>
</svg>
