<svg width="31" height="31" viewBox="0 0 31 31" fill="none" xmlns="http://www.w3.org/2000/svg">
<rect width="31" height="31" rx="15.5" fill="#516EAB"/>
<g clip-path="url(#clip0_19_775)">
<path d="M20.4949 14.3833L20.2551 16.3095C20.2145 16.6313 19.942 16.8733 19.6188 16.8733H16.499V24.9268C16.17 24.9565 15.8366 24.9717 15.4996 24.9717C14.746 24.9717 14.0104 24.8964 13.2995 24.7529V16.8733H10.9C10.6797 16.8733 10.5 16.6929 10.5 16.4718V14.0615C10.5 13.8405 10.6797 13.66 10.9 13.66H13.2995V10.0453C13.2995 7.82701 15.0902 6.02905 17.2998 6.02905H20.0992C20.3196 6.02905 20.4993 6.2095 20.4993 6.43053V8.84085C20.4993 9.06188 20.3196 9.24233 20.0992 9.24233H18.0991C17.2157 9.24233 16.4997 9.96122 16.4997 10.849V13.6608H19.8594C20.2449 13.6608 20.5428 13.9999 20.4957 14.384L20.4949 14.3833Z" fill="white"/>
</g>
<defs>
<clipPath id="clip0_19_775">
<rect width="10" height="18.942" fill="white" transform="translate(10.5 6.02905)"/>
</clipPath>
</defs>
</svg>
