<svg width="31" height="31" viewBox="0 0 31 31" fill="none" xmlns="http://www.w3.org/2000/svg">
<rect width="31" height="31" rx="15.5" fill="#7BBF6A"/>
<g clip-path="url(#clip0_19_810)">
<path d="M15.2005 6.50457C10.5685 6.65542 6.74355 10.4064 6.51123 15.0347C6.42751 16.7031 6.79559 18.2803 7.5114 19.6493L6.50595 24.1523C6.46371 24.356 6.64398 24.5362 6.84764 24.494L11.3507 23.4886H11.3537C12.7136 24.1991 14.2742 24.5672 15.9306 24.4902C20.5513 24.276 24.3144 20.4798 24.4931 15.8576C24.6953 10.6221 20.4283 6.33485 15.2005 6.50457ZM15.4999 22.6377C14.1905 22.6377 12.964 22.284 11.9096 21.6662C11.81 21.6104 11.7142 21.5516 11.6207 21.489L8.74388 22.2553L9.51023 19.3785C8.78386 18.2614 8.36222 16.9301 8.36222 15.4993C8.36222 11.5642 11.5649 8.36159 15.4999 8.36159C19.435 8.36159 22.6376 11.5642 22.6376 15.4993C22.6376 19.4343 19.435 22.637 15.4999 22.637V22.6377Z" fill="white"/>
<path d="M19.733 18.6423C19.6086 18.8293 19.4781 19.0036 19.2692 19.2118C18.8121 19.6688 18.177 19.8997 17.5328 19.834C16.3788 19.7156 14.739 19.0782 13.3293 17.6715C11.9195 16.2618 11.2822 14.622 11.1668 13.468C11.1011 12.8238 11.3319 12.1895 11.789 11.7316C11.9972 11.5234 12.1714 11.3922 12.3585 11.2647C12.704 11.0316 13.1739 11.187 13.3044 11.5793L13.7773 12.998C13.9078 13.3872 13.849 13.6331 13.6807 13.7976L13.3044 14.1777C13.1173 14.3648 13.0864 14.6537 13.2297 14.8777C13.4379 15.2043 13.8301 15.727 14.5519 16.4488C15.2738 17.1707 15.7965 17.5629 16.1231 17.7711C16.3471 17.9144 16.6368 17.8835 16.8231 17.6964L17.2032 17.32C17.3684 17.1518 17.6143 17.093 18.0027 17.2235L19.4215 17.6964C19.8138 17.8269 19.9691 18.2968 19.733 18.6423Z" fill="white"/>
</g>
<defs>
<clipPath id="clip0_19_810">
<rect width="18" height="18" fill="white" transform="translate(6.5 6.5)"/>
</clipPath>
</defs>
</svg>
