<svg width="31" height="31" viewBox="0 0 31 31" fill="none" xmlns="http://www.w3.org/2000/svg">
<rect width="31" height="31" rx="15.5" fill="#CA212A"/>
<g clip-path="url(#clip0_19_809)">
<path d="M11.3822 26.061C11.7165 25.7492 13.1108 24.3065 13.8451 21.3157L14.3989 19.042C14.9181 19.5827 15.6394 19.9439 16.3996 20.1287C19.4742 20.8855 22.4512 17.6001 23.2252 14.4418C24.312 10.0213 22.0555 6.12084 18.3166 5.20599C14.0127 4.14946 8.93309 6.25129 7.69255 11.305C7.25716 13.082 7.40229 15.7687 9.81253 17.049C10.0587 17.1811 10.362 17.0447 10.4285 16.7717L10.7671 15.4041C10.8025 15.246 10.7403 15.0828 10.6177 14.9731C9.75983 14.1947 9.562 12.9239 9.85226 11.7318C10.692 8.31424 14.2062 6.91129 17.197 7.6456C19.7921 8.28314 21.3704 10.9309 20.6361 13.9217C20.1126 16.059 18.6302 18.4122 16.4929 17.8887C15.2127 17.5768 15.0675 16.3233 15.4157 14.9065L16.1984 11.705C16.4005 10.8783 15.8951 10.0429 15.0727 9.83986C14.246 9.63771 12.9398 10.2226 12.5217 11.9331C12.2755 12.9317 12.4776 13.7317 12.856 14.2595L11.2811 20.6851C10.5555 23.6447 11.1049 25.5582 11.2682 26.0152" fill="white"/>
</g>
<defs>
<clipPath id="clip0_19_809">
<rect width="16" height="21.122" fill="white" transform="translate(7.5 4.93903)"/>
</clipPath>
</defs>
</svg>
