<svg width="31" height="31" viewBox="0 0 31 31" fill="none" xmlns="http://www.w3.org/2000/svg">
<rect width="31" height="31" rx="15.5" fill="#F9E000"/>
<g clip-path="url(#clip0_19_806)">
<path d="M15.5 7.55005C10.5293 7.55005 6.5 10.728 6.5 14.6503C6.5 17.2025 8.20619 19.4392 10.7689 20.6907C10.5802 21.3911 10.0874 23.231 9.98886 23.6244C9.8665 24.1128 10.1673 24.106 10.3661 23.9754C10.5208 23.872 12.8319 22.3034 13.8295 21.6268C14.3716 21.7065 14.929 21.7489 15.5 21.7489C20.4707 21.7489 24.5 18.571 24.5 14.6503C24.5 10.7296 20.4707 7.55005 15.5 7.55005Z" fill="black"/>
<path d="M9.22091 13.3428H10.1471C10.1471 13.3428 10.1522 15.8814 10.1471 16.4732C10.1471 16.9057 11.1106 16.9108 11.1089 16.48L11.1123 13.3767C11.1123 13.3767 11.4233 13.3784 12.0334 13.3784C12.6095 13.3784 12.6095 12.4746 12.0334 12.4746C11.3842 12.4746 9.21581 12.4559 9.21581 12.4559C8.67201 12.4559 8.6737 13.3428 9.21581 13.3428" fill="#F9E000"/>
<mask id="mask0_19_806" style="mask-type:luminance" maskUnits="userSpaceOnUse" x="8" y="12" width="5" height="5">
<path d="M9.22091 13.3428H10.1471C10.1471 13.3428 10.1522 15.8814 10.1471 16.4732C10.1471 16.9057 11.1106 16.9108 11.1089 16.48L11.1123 13.3767C11.1123 13.3767 11.4233 13.3784 12.0334 13.3784C12.6095 13.3784 12.6095 12.4746 12.0334 12.4746C11.3842 12.4746 9.21581 12.4559 9.21581 12.4559C8.67201 12.4559 8.6737 13.3428 9.21581 13.3428" fill="white"/>
</mask>
<g mask="url(#mask0_19_806)">
<path d="M12.613 12.4559H8.67725V16.9108H12.613V12.4559Z" fill="#F9E000"/>
</g>
<path d="M13.6547 13.5073L14.1696 15.1183H13.0956L13.6547 13.5073ZM13.0769 12.7527C12.8491 13.253 12.0249 15.6186 11.753 16.246C11.5559 16.6988 12.4073 17.0685 12.6044 16.6157L12.7897 15.9696H14.484C14.484 15.9696 14.4262 15.9968 14.6505 16.5886C14.8323 17.0685 15.7126 16.7361 15.5308 16.2562C15.2708 15.5711 14.3701 13.1021 14.2053 12.7527C14.1305 12.5916 13.8586 12.4746 13.5952 12.4746C13.3777 12.4746 13.1652 12.5543 13.0752 12.7527" fill="#F9E000"/>
<mask id="mask1_19_806" style="mask-type:luminance" maskUnits="userSpaceOnUse" x="11" y="12" width="5" height="5">
<path d="M13.6547 13.5073L14.1696 15.1183H13.0956L13.6547 13.5073ZM13.0769 12.7527C12.8491 13.253 12.0249 15.6186 11.753 16.246C11.5559 16.6988 12.4073 17.0685 12.6044 16.6157L12.7897 15.9696H14.484C14.484 15.9696 14.4262 15.9968 14.6505 16.5886C14.8323 17.0685 15.7126 16.7361 15.5308 16.2562C15.2708 15.5711 14.3701 13.1021 14.2053 12.7527C14.1305 12.5916 13.8586 12.4746 13.5952 12.4746C13.3777 12.4746 13.1652 12.5543 13.0752 12.7527" fill="white"/>
</mask>
<g mask="url(#mask1_19_806)">
<path d="M15.7143 12.4746H11.5542V17.0702H15.7143V12.4746Z" fill="#F9E000"/>
</g>
<path d="M15.8569 12.9003C15.8569 13.7041 15.862 16.2952 15.862 16.2952C15.862 16.2952 15.7873 16.8107 16.2308 16.8107C16.6744 16.8107 17.6549 16.8056 18.0899 16.8056C18.525 16.8056 18.5233 15.8814 18.0882 15.8814C17.6532 15.8814 16.8579 15.8764 16.8579 15.8764C16.8579 15.8764 16.8613 13.4802 16.8596 12.8969C16.8596 12.6154 16.6081 12.4746 16.3583 12.4746C16.1085 12.4746 15.8552 12.6171 15.8569 12.8986" fill="#F9E000"/>
<mask id="mask2_19_806" style="mask-type:luminance" maskUnits="userSpaceOnUse" x="15" y="12" width="4" height="5">
<path d="M15.8569 12.9003C15.8569 13.7041 15.862 16.2952 15.862 16.2952C15.862 16.2952 15.7873 16.8107 16.2308 16.8107C16.6744 16.8107 17.6549 16.8056 18.0899 16.8056C18.525 16.8056 18.5233 15.8814 18.0882 15.8814C17.6532 15.8814 16.8579 15.8764 16.8579 15.8764C16.8579 15.8764 16.8613 13.4802 16.8596 12.8969C16.8596 12.6154 16.6081 12.4746 16.3583 12.4746C16.1085 12.4746 15.8552 12.6171 15.8569 12.8986" fill="white"/>
</mask>
<g mask="url(#mask2_19_806)">
<path d="M18.5248 12.4746H15.7871V16.809H18.5248V12.4746Z" fill="#F9E000"/>
</g>
<path d="M18.6408 12.7714C18.651 13.1241 18.6289 16.3122 18.6289 16.5479C18.6289 16.921 19.5806 16.9193 19.5806 16.5479C19.5806 16.1155 19.5806 15.293 19.5806 15.293L19.8593 15.0692L21.0811 16.731C21.3275 17.0566 22.1042 16.4682 21.8578 16.1443L20.5611 14.44C20.5611 14.44 21.4414 13.4904 21.7881 13.1462C21.9903 12.9461 21.3632 12.3152 21.161 12.517C20.9656 12.7103 19.5857 14.089 19.5857 14.089C19.5857 14.089 19.5976 13.2242 19.5857 12.7459C19.5806 12.5645 19.3579 12.4763 19.1285 12.4763C18.8838 12.4763 18.634 12.5764 18.6391 12.7714" fill="#F9E000"/>
<mask id="mask3_19_806" style="mask-type:luminance" maskUnits="userSpaceOnUse" x="18" y="12" width="4" height="5">
<path d="M18.6408 12.7714C18.651 13.1241 18.6289 16.3122 18.6289 16.5479C18.6289 16.921 19.5806 16.9193 19.5806 16.5479C19.5806 16.1155 19.5806 15.293 19.5806 15.293L19.8593 15.0692L21.0811 16.731C21.3275 17.0566 22.1042 16.4682 21.8578 16.1443L20.5611 14.44C20.5611 14.44 21.4414 13.4904 21.7881 13.1462C21.9903 12.9461 21.3632 12.3152 21.161 12.517C20.9656 12.7103 19.5857 14.089 19.5857 14.089C19.5857 14.089 19.5976 13.2242 19.5857 12.7459C19.5806 12.5645 19.3579 12.4763 19.1285 12.4763C18.8838 12.4763 18.634 12.5764 18.6391 12.7714" fill="white"/>
</mask>
<g mask="url(#mask3_19_806)">
<path d="M22.1042 12.3169H18.6289V17.0583H22.1042V12.3169Z" fill="#F9E000"/>
</g>
</g>
<defs>
<clipPath id="clip0_19_806">
<rect width="18" height="16.5" fill="white" transform="translate(6.5 7.55005)"/>
</clipPath>
</defs>
</svg>
