<svg width="24" height="26" viewBox="0 0 24 26" fill="none" xmlns="http://www.w3.org/2000/svg">
<g clip-path="url(#clip0_22_1877)">
<path d="M18.2002 0.433594C18.4593 0.433636 18.6565 0.515839 18.8203 0.679688C18.9842 0.843537 19.0664 1.0407 19.0664 1.2998V3.0332H20.7998C21.399 3.0332 21.9015 3.24137 22.3301 3.66992C22.7586 4.09847 22.9668 4.60104 22.9668 5.2002V23.4004C22.9667 23.9993 22.7584 24.5013 22.3301 24.9297C21.9015 25.3582 21.399 25.5664 20.7998 25.5664H2.59961C2.00062 25.5663 1.49877 25.3581 1.07031 24.9297C0.641857 24.5012 0.433684 23.9994 0.433594 23.4004V5.2002C0.433594 4.60104 0.641763 4.09847 1.07031 3.66992C1.49873 3.2416 2.00071 3.03329 2.59961 3.0332H4.33301V1.2998C4.33305 1.0407 4.41623 0.843537 4.58008 0.679688C4.74393 0.515927 4.94109 0.433594 5.2002 0.433594C5.4593 0.433635 5.65646 0.515839 5.82031 0.679688C5.98416 0.843537 6.06636 1.0407 6.06641 1.2998V3.0332H17.333V1.2998C17.333 1.0407 17.4162 0.843535 17.5801 0.679688C17.7439 0.515927 17.9411 0.433594 18.2002 0.433594ZM2.16699 23.833H21.2334V9.9668H2.16699V23.833Z" stroke="#26A9DE" stroke-width="0.866667"/>
<path d="M8.0166 16.5286L10.853 19.5L15.8166 14.3" stroke="#26A9DE" stroke-width="0.866667" stroke-linecap="round"/>
</g>
<defs>
<clipPath id="clip0_22_1877">
<rect width="23.4" height="26" fill="white"/>
</clipPath>
</defs>
</svg>
