<svg width="26" height="26" viewBox="0 0 26 26" fill="none" xmlns="http://www.w3.org/2000/svg">
<circle cx="13" cy="13" r="12.58" stroke="#26A9DE" stroke-width="0.84"/>
<path d="M13.3536 6.64645C13.1583 6.45118 12.8417 6.45118 12.6464 6.64645L9.46447 9.82843C9.2692 10.0237 9.2692 10.3403 9.46447 10.5355C9.65973 10.7308 9.97631 10.7308 10.1716 10.5355L13 7.70711L15.8284 10.5355C16.0237 10.7308 16.3403 10.7308 16.5355 10.5355C16.7308 10.3403 16.7308 10.0237 16.5355 9.82843L13.3536 6.64645ZM12.5 19C12.5 19.2761 12.7239 19.5 13 19.5C13.2761 19.5 13.5 19.2761 13.5 19H13H12.5ZM13 7H12.5V19H13H13.5V7H13Z" fill="#26A9DE"/>
</svg>
