<svg width="26" height="26" viewBox="0 0 26 26" fill="none" xmlns="http://www.w3.org/2000/svg">
<g clip-path="url(#clip0_22_1898)">
<mask id="mask0_22_1898" style="mask-type:luminance" maskUnits="userSpaceOnUse" x="0" y="0" width="26" height="27">
<path d="M0 0.000123978H26V26.0001H0V0.000123978Z" fill="white"/>
</mask>
<g mask="url(#mask0_22_1898)">
<path d="M17.9578 13.1538C17.8276 12.9282 17.7834 12.6529 17.8561 12.3814C18.2991 10.7281 17.3144 9.02263 15.6612 8.57957C15.1181 8.43403 14.7958 7.87584 14.9413 7.33279C15.0868 6.78973 15.645 6.46742 16.1881 6.61296C18.9258 7.34655 20.5563 10.1706 19.8227 12.9083C19.6772 13.4514 19.119 13.7737 18.576 13.6281C18.3044 13.5554 18.0881 13.3795 17.9578 13.1538Z" stroke="#26A9DE" stroke-width="0.87" stroke-miterlimit="10" stroke-linecap="round" stroke-linejoin="round"/>
<path d="M21.9395 14.2207C21.8092 13.9951 21.765 13.7198 21.8378 13.4483C22.869 9.59944 20.5769 5.62926 16.728 4.59794C16.185 4.45246 15.8627 3.89422 16.0082 3.35116C16.1537 2.80811 16.7119 2.4858 17.255 2.63134C22.1882 3.95317 25.1262 9.04201 23.8044 13.9752C23.6589 14.5183 23.1007 14.8406 22.5576 14.695C22.286 14.6223 22.0697 14.4464 21.9395 14.2207Z" stroke="#26A9DE" stroke-width="0.87" stroke-miterlimit="10" stroke-linecap="round" stroke-linejoin="round"/>
<path d="M6.91287 18.6663L8.61907 21.6215C10.7562 25.3231 15.4894 26.5914 19.1911 24.4543L19.8935 24.0487C20.8197 23.5139 21.1371 22.3296 20.6023 21.4033L18.6207 17.9711C18.086 17.0449 16.9016 16.7276 15.9754 17.2623L13.9077 18.4561C13.4634 18.7126 12.8953 18.5604 12.6388 18.1161L7.98385 10.0535C7.72735 9.6092 7.87954 9.04106 8.32388 8.78456L10.3915 7.59079C11.3177 7.05602 11.6351 5.87165 11.1003 4.94545L9.09763 1.47663C8.56286 0.550381 7.37854 0.233049 6.45229 0.767826L5.74983 1.17336C2.04823 3.31049 0.779919 8.04376 2.91705 11.7454L4.62787 14.7085" stroke="#26A9DE" stroke-width="0.87" stroke-miterlimit="10" stroke-linecap="round" stroke-linejoin="round"/>
<path d="M8.32381 8.78467L4.5531 2.25359" stroke="#26A9DE" stroke-width="0.87" stroke-miterlimit="10" stroke-linecap="round" stroke-linejoin="round"/>
<path d="M13.9077 18.4562L17.6409 24.9222" stroke="#26A9DE" stroke-width="0.87" stroke-miterlimit="10" stroke-linecap="round" stroke-linejoin="round"/>
</g>
</g>
<defs>
<clipPath id="clip0_22_1898">
<rect width="26" height="26" fill="white"/>
</clipPath>
</defs>
</svg>
