<svg width="26" height="24" viewBox="0 0 26 24" fill="none" xmlns="http://www.w3.org/2000/svg">
<g clip-path="url(#clip0_5_748)">
<path d="M12.9727 0.433594C19.9983 0.433708 25.5117 4.92146 25.5117 10.2559C25.5117 15.5902 19.9985 20.0761 12.9727 20.0762C12.1713 20.0762 11.3887 20.0164 10.6279 19.9043L10.4609 19.8799L10.3213 19.9746C9.0106 20.8655 6.13228 22.8214 5.46094 23.2764C5.62585 22.6256 6.30567 20.0821 6.57129 19.0938L6.66406 18.749L6.34375 18.5918C2.75582 16.8359 0.433594 13.7341 0.433594 10.2559C0.43364 4.919 5.94684 0.433594 12.9727 0.433594Z" stroke="#26A9DE" stroke-width="0.866667"/>
<path d="M3.92157 8.36738H5.25653C5.25653 8.36738 5.26388 12.0342 5.25653 12.8891C5.25653 13.5137 6.64538 13.5211 6.64293 12.8989L6.64783 8.41637C6.64783 8.41637 7.09609 8.41881 7.97545 8.41881C8.80582 8.41881 8.80582 7.11325 7.97545 7.11325C7.03975 7.11325 3.91422 7.0863 3.91422 7.0863C3.13039 7.0863 3.13284 8.36738 3.91422 8.36738" fill="#26A9DE"/>
<mask id="mask0_5_748" style="mask-type:luminance" maskUnits="userSpaceOnUse" x="3" y="7" width="6" height="7">
<path d="M3.92157 8.36738H5.25653C5.25653 8.36738 5.26388 12.0342 5.25653 12.8891C5.25653 13.5137 6.64538 13.5211 6.64293 12.8989L6.64783 8.41637C6.64783 8.41637 7.09609 8.41881 7.97545 8.41881C8.80582 8.41881 8.80582 7.11325 7.97545 7.11325C7.03975 7.11325 3.91422 7.0863 3.91422 7.0863C3.13039 7.0863 3.13284 8.36738 3.91422 8.36738" fill="white"/>
</mask>
<g mask="url(#mask0_5_748)">
<path d="M8.81079 7.08624H3.13782V13.521H8.81079V7.08624Z" fill="#26A9DE"/>
</g>
<path d="M10.3123 8.60495L11.0545 10.9319H9.50639L10.3123 8.60495ZM9.47945 7.51493C9.15122 8.23753 7.96323 11.6545 7.57131 12.5608C7.28717 13.2148 8.51436 13.7488 8.79849 13.0948L9.06549 12.1616H11.5076C11.5076 12.1616 11.4243 12.2008 11.7477 13.0556C12.0097 13.7488 13.2786 13.2687 13.0165 12.5755C12.6417 11.5859 11.3435 8.01952 11.1059 7.51493C10.9981 7.28223 10.6062 7.11322 10.2265 7.11322C9.913 7.11322 9.60682 7.22835 9.477 7.51493" fill="#26A9DE"/>
<mask id="mask1_5_748" style="mask-type:luminance" maskUnits="userSpaceOnUse" x="7" y="7" width="7" height="7">
<path d="M10.3123 8.60495L11.0545 10.9319H9.50639L10.3123 8.60495ZM9.47945 7.51493C9.15122 8.23753 7.96323 11.6545 7.57131 12.5608C7.28717 13.2148 8.51436 13.7488 8.79849 13.0948L9.06549 12.1616H11.5076C11.5076 12.1616 11.4243 12.2008 11.7477 13.0556C12.0097 13.7488 13.2786 13.2687 13.0165 12.5755C12.6417 11.5859 11.3435 8.01952 11.1059 7.51493C10.9981 7.28223 10.6062 7.11322 10.2265 7.11322C9.913 7.11322 9.60682 7.22835 9.477 7.51493" fill="white"/>
</mask>
<g mask="url(#mask1_5_748)">
<path d="M13.2811 7.11322H7.28479V13.7513H13.2811V7.11322Z" fill="#26A9DE"/>
</g>
<path d="M13.4868 7.72804C13.4868 8.88908 13.4942 12.6319 13.4942 12.6319C13.4942 12.6319 13.3864 13.3765 14.0257 13.3765C14.665 13.3765 16.0784 13.3692 16.7054 13.3692C17.3325 13.3692 17.33 12.0342 16.703 12.0342C16.0759 12.0342 14.9296 12.0269 14.9296 12.0269C14.9296 12.0269 14.9345 8.56576 14.932 7.72314C14.932 7.31653 14.5695 7.11322 14.2094 7.11322C13.8493 7.11322 13.4844 7.31898 13.4868 7.72559" fill="#26A9DE"/>
<mask id="mask2_5_748" style="mask-type:luminance" maskUnits="userSpaceOnUse" x="13" y="7" width="5" height="7">
<path d="M13.4868 7.72804C13.4868 8.88908 13.4942 12.6319 13.4942 12.6319C13.4942 12.6319 13.3864 13.3765 14.0257 13.3765C14.665 13.3765 16.0784 13.3692 16.7054 13.3692C17.3325 13.3692 17.33 12.0342 16.703 12.0342C16.0759 12.0342 14.9296 12.0269 14.9296 12.0269C14.9296 12.0269 14.9345 8.56576 14.932 7.72314C14.932 7.31653 14.5695 7.11322 14.2094 7.11322C13.8493 7.11322 13.4844 7.31898 13.4868 7.72559" fill="white"/>
</mask>
<g mask="url(#mask2_5_748)">
<path d="M17.3322 7.11322H13.3861V13.3741H17.3322V7.11322Z" fill="#26A9DE"/>
</g>
<path d="M17.499 7.54187C17.5137 8.05136 17.4818 12.6564 17.4818 12.9968C17.4818 13.5357 18.8535 13.5333 18.8535 12.9968C18.8535 12.3722 18.8535 11.1842 18.8535 11.1842L19.2552 10.8609L21.0164 13.2614C21.3716 13.7317 22.491 12.8817 22.1358 12.4139L20.2669 9.95215C20.2669 9.95215 21.5357 8.58044 22.0354 8.0832C22.3269 7.79416 21.423 6.88296 21.1315 7.17445C20.8498 7.45369 18.8609 9.44511 18.8609 9.44511C18.8609 9.44511 18.878 8.19588 18.8609 7.50513C18.8535 7.24303 18.5326 7.11566 18.202 7.11566C17.8492 7.11566 17.4892 7.26018 17.4965 7.54187" fill="#26A9DE"/>
<mask id="mask3_5_748" style="mask-type:luminance" maskUnits="userSpaceOnUse" x="17" y="7" width="6" height="7">
<path d="M17.499 7.54187C17.5137 8.05136 17.4818 12.6564 17.4818 12.9968C17.4818 13.5357 18.8535 13.5333 18.8535 12.9968C18.8535 12.3722 18.8535 11.1842 18.8535 11.1842L19.2552 10.8609L21.0164 13.2614C21.3716 13.7317 22.491 12.8817 22.1358 12.4139L20.2669 9.95215C20.2669 9.95215 21.5357 8.58044 22.0354 8.0832C22.3269 7.79416 21.423 6.88296 21.1315 7.17445C20.8498 7.45369 18.8609 9.44511 18.8609 9.44511C18.8609 9.44511 18.878 8.19588 18.8609 7.50513C18.8535 7.24303 18.5326 7.11566 18.202 7.11566C17.8492 7.11566 17.4892 7.26018 17.4965 7.54187" fill="white"/>
</mask>
<g mask="url(#mask3_5_748)">
<path d="M22.491 6.88544H17.4818V13.7342H22.491V6.88544Z" fill="#26A9DE"/>
</g>
</g>
<defs>
<clipPath id="clip0_5_748">
<rect width="25.9448" height="23.8333" fill="white"/>
</clipPath>
</defs>
</svg>
